# xmcd
#
# Track frame offsets:
#	150
#	18134
#	32474
#	49399
#	59404
#	73110
#	89032
#	102772
#	119674
#	132813
#	141105
#	150850
#	162695
#	172938
#	181778
#	196364
#	211221
#	228168
#	239867
#	248640
#
# Disc length: 3492 seconds
#
# Revision: 0
# Processed by: cddbd v1.5.2PL0 Copyright (c) Steve Scherf et al.
# Submitted via: audiograbber 1.83.01
#
DISCID=140da214
DTITLE=Vaughn Monroe - Sentimental Gentleman Of Song CD1
DYEAR=1900
DGENRE=Oldies
TTITLE0=Intro/Imagination
TTITLE1=Let It Snow
TTITLE2=When The Sandman Rides The Trail
TTITLE3=Something Sentimental
TTITLE4=Trolley Song
TTITLE5=The Very Thought Of You
TTITLE6=What Are You Doing The Rest Of Your Life
TTITLE7=I'll See You In My Dreams
TTITLE8=Changing My Tune
TTITLE9=Surrender
TTITLE10=Pennsylvania Polka
TTITLE11=Sentimental Me
TTITLE12=My Foolish Heart
TTITLE13=I Don't Care If The Sun Don't Shine
TTITLE14=Chattanooga Shoe Shine Boy
TTITLE15=There's No Tomorrow
TTITLE16=Penthouse Serenade
TTITLE17=Guessing
TTITLE18=Young At Heart
TTITLE19=They Call The Wind Maria
EXTD=
EXTT0=
EXTT1=
EXTT2=
EXTT3=
EXTT4=
EXTT5=
EXTT6=
EXTT7=
EXTT8=
EXTT9=
EXTT10=
EXTT11=
EXTT12=
EXTT13=
EXTT14=
EXTT15=
EXTT16=
EXTT17=
EXTT18=
EXTT19=
PLAYORDER=
